<svg viewBox="0 0 1200 780" xmlns="http://www.w3.org/2000/svg" font-family="Segoe UI, Helvetica, Arial, sans-serif">
  <defs>
    <marker id="ok" viewBox="0 0 10 10" refX="9" refY="5" markerWidth="7" markerHeight="7" orient="auto-start-reverse">
      <path d="M0,0 L10,5 L0,10 z" fill="#64748b"/>
    </marker>
  </defs>

  <rect width="1200" height="780" fill="#ffffff"/>
  <text x="600" y="38" text-anchor="middle" font-size="22" font-weight="600" fill="#0f172a">Kule — sistem mimarisi</text>
  <text x="600" y="62" text-anchor="middle" font-size="13" fill="#64748b">Kontrol düzlemi bulutta, yürütme kullanıcının kendi makinesinde</text>

  <!-- Istemciler -->
  <rect x="60" y="100" width="300" height="110" rx="10" fill="#f8fafc" stroke="#cbd5e1"/>
  <text x="210" y="128" text-anchor="middle" font-size="15" font-weight="600" fill="#0f172a">Web arayüzü</text>
  <text x="210" y="150" text-anchor="middle" font-size="12" fill="#475569">React 19 · TypeScript · Vite</text>
  <text x="210" y="172" text-anchor="middle" font-size="12" fill="#475569">görev oluşturma, izleme, onay</text>
  <text x="210" y="194" text-anchor="middle" font-size="12" fill="#94a3b8">:5173</text>

  <rect x="840" y="100" width="300" height="110" rx="10" fill="#f8fafc" stroke="#cbd5e1"/>
  <text x="990" y="128" text-anchor="middle" font-size="15" font-weight="600" fill="#0f172a">Masaüstü uygulaması</text>
  <text x="990" y="150" text-anchor="middle" font-size="12" fill="#475569">Electron · gömülü PTY terminal</text>
  <text x="990" y="172" text-anchor="middle" font-size="12" fill="#475569">görev penceresi, dosya ağacı, git</text>
  <text x="990" y="194" text-anchor="middle" font-size="12" fill="#94a3b8">kullanıcının makinesi</text>

  <!-- Backend -->
  <rect x="220" y="270" width="760" height="230" rx="12" fill="#eff6ff" stroke="#93c5fd"/>
  <text x="600" y="298" text-anchor="middle" font-size="16" font-weight="600" fill="#1e3a8a">Backend — Spring Boot 4.1.1 / Java 21</text>
  <text x="600" y="318" text-anchor="middle" font-size="12" fill="#3b82f6">paket bazlı modüler monolit · :8081</text>

  <rect x="248" y="336" width="160" height="66" rx="8" fill="#ffffff" stroke="#bfdbfe"/>
  <text x="328" y="358" text-anchor="middle" font-size="13" font-weight="600" fill="#1e3a8a">identity</text>
  <text x="328" y="378" text-anchor="middle" font-size="11" fill="#475569">JWT, organizasyon,</text>
  <text x="328" y="393" text-anchor="middle" font-size="11" fill="#475569">üyelik, roller</text>

  <rect x="424" y="336" width="160" height="66" rx="8" fill="#ffffff" stroke="#bfdbfe"/>
  <text x="504" y="358" text-anchor="middle" font-size="13" font-weight="600" fill="#1e3a8a">task</text>
  <text x="504" y="378" text-anchor="middle" font-size="11" fill="#475569">durum makinesi,</text>
  <text x="504" y="393" text-anchor="middle" font-size="11" fill="#475569">dağıtım, loglar</text>

  <rect x="600" y="336" width="160" height="66" rx="8" fill="#ffffff" stroke="#bfdbfe"/>
  <text x="680" y="358" text-anchor="middle" font-size="13" font-weight="600" fill="#1e3a8a">approval</text>
  <text x="680" y="378" text-anchor="middle" font-size="11" fill="#475569">riskli araç çağrısı</text>
  <text x="680" y="393" text-anchor="middle" font-size="11" fill="#475569">onay kapısı</text>

  <rect x="776" y="336" width="176" height="66" rx="8" fill="#ffffff" stroke="#bfdbfe"/>
  <text x="864" y="358" text-anchor="middle" font-size="13" font-weight="600" fill="#1e3a8a">gateway</text>
  <text x="864" y="378" text-anchor="middle" font-size="11" fill="#475569">WebSocket köprüsü,</text>
  <text x="864" y="393" text-anchor="middle" font-size="11" fill="#475569">bridge token</text>

  <rect x="248" y="418" width="160" height="58" rx="8" fill="#ffffff" stroke="#bfdbfe"/>
  <text x="328" y="440" text-anchor="middle" font-size="13" font-weight="600" fill="#1e3a8a">project</text>
  <text x="328" y="460" text-anchor="middle" font-size="11" fill="#475569">depo, varsayılan dal</text>

  <rect x="424" y="418" width="160" height="58" rx="8" fill="#ffffff" stroke="#bfdbfe"/>
  <text x="504" y="440" text-anchor="middle" font-size="13" font-weight="600" fill="#1e3a8a">agent</text>
  <text x="504" y="460" text-anchor="middle" font-size="11" fill="#475569">connector, API anahtarı</text>

  <rect x="600" y="418" width="160" height="58" rx="8" fill="#ffffff" stroke="#bfdbfe"/>
  <text x="680" y="440" text-anchor="middle" font-size="13" font-weight="600" fill="#1e3a8a">audit</text>
  <text x="680" y="460" text-anchor="middle" font-size="11" fill="#475569">değişmez olay kaydı</text>

  <rect x="776" y="418" width="176" height="58" rx="8" fill="#ffffff" stroke="#bfdbfe"/>
  <text x="864" y="440" text-anchor="middle" font-size="13" font-weight="600" fill="#1e3a8a">notification</text>
  <text x="864" y="460" text-anchor="middle" font-size="11" fill="#475569">bildirim, e-posta</text>

  <!-- Altyapi -->
  <rect x="60" y="270" width="132" height="230" rx="10" fill="#f0fdf4" stroke="#86efac"/>
  <text x="126" y="296" text-anchor="middle" font-size="13" font-weight="600" fill="#166534">Altyapı</text>
  <text x="126" y="330" text-anchor="middle" font-size="12" fill="#166534">PostgreSQL 18</text>
  <text x="126" y="348" text-anchor="middle" font-size="11" fill="#15803d">Row Level Security</text>
  <text x="126" y="366" text-anchor="middle" font-size="11" fill="#15803d">Flyway</text>
  <text x="126" y="400" text-anchor="middle" font-size="12" fill="#166534">Redis 7</text>
  <text x="126" y="418" text-anchor="middle" font-size="11" fill="#15803d">hız sınırı, bilet</text>
  <text x="126" y="452" text-anchor="middle" font-size="12" fill="#166534">Kafka</text>
  <text x="126" y="470" text-anchor="middle" font-size="11" fill="#15803d">task.created outbox</text>

  <!-- Bulut modelleri -->
  <rect x="1008" y="270" width="132" height="130" rx="10" fill="#fef3c7" stroke="#fcd34d"/>
  <text x="1074" y="296" text-anchor="middle" font-size="13" font-weight="600" fill="#92400e">Bulut modelleri</text>
  <text x="1074" y="324" text-anchor="middle" font-size="12" fill="#92400e">Claude</text>
  <text x="1074" y="346" text-anchor="middle" font-size="12" fill="#92400e">ChatGPT</text>
  <text x="1074" y="368" text-anchor="middle" font-size="12" fill="#92400e">Gemini</text>
  <text x="1074" y="390" text-anchor="middle" font-size="11" fill="#b45309">connector katmanı</text>

  <!-- Runner -->
  <rect x="220" y="570" width="760" height="150" rx="12" fill="#faf5ff" stroke="#d8b4fe"/>
  <text x="600" y="598" text-anchor="middle" font-size="16" font-weight="600" fill="#6b21a8">Yerel runner — Node.js</text>
  <text x="600" y="618" text-anchor="middle" font-size="12" fill="#7e22ce">kullanıcının kendi makinesinde çalışır, dışarıya port açmaz</text>

  <rect x="252" y="636" width="220" height="60" rx="8" fill="#ffffff" stroke="#e9d5ff"/>
  <text x="362" y="658" text-anchor="middle" font-size="12" font-weight="600" fill="#6b21a8">Dosya ve git araçları</text>
  <text x="362" y="678" text-anchor="middle" font-size="11" fill="#475569">read_file, write_file, git_*</text>

  <rect x="490" y="636" width="220" height="60" rx="8" fill="#ffffff" stroke="#e9d5ff"/>
  <text x="600" y="658" text-anchor="middle" font-size="12" font-weight="600" fill="#6b21a8">Komut çalıştırma</text>
  <text x="600" y="678" text-anchor="middle" font-size="11" fill="#475569">run_command · PTY oturumu</text>

  <rect x="728" y="636" width="220" height="60" rx="8" fill="#ffffff" stroke="#e9d5ff"/>
  <text x="838" y="658" text-anchor="middle" font-size="12" font-weight="600" fill="#6b21a8">Ajan CLI'leri</text>
  <text x="838" y="678" text-anchor="middle" font-size="11" fill="#475569">gömülü terminalde etkileşimli</text>

  <!-- Oklar -->
  <line x1="210" y1="210" x2="330" y2="268" stroke="#64748b" stroke-width="1.6" marker-end="url(#ok)"/>
  <text x="196" y="246" font-size="11" fill="#475569">REST + WebSocket</text>

  <line x1="990" y1="210" x2="880" y2="268" stroke="#64748b" stroke-width="1.6" marker-end="url(#ok)"/>
  <text x="944" y="246" font-size="11" fill="#475569">bridge protokolü</text>

  <line x1="192" y1="385" x2="218" y2="385" stroke="#64748b" stroke-width="1.6" marker-end="url(#ok)"/>
  <line x1="980" y1="335" x2="1006" y2="335" stroke="#64748b" stroke-width="1.6" marker-end="url(#ok)"/>

  <line x1="600" y1="500" x2="600" y2="568" stroke="#64748b" stroke-width="1.6" marker-end="url(#ok)"/>
  <text x="612" y="538" font-size="11" fill="#475569">TASK_DISPATCH / TOOL_CALL · TASK_RESULT / LOG</text>

  <line x1="900" y1="570" x2="960" y2="215" stroke="#94a3b8" stroke-width="1.4" stroke-dasharray="5 4"/>
  <text x="906" y="404" font-size="11" fill="#94a3b8" transform="rotate(-80 906 404)">aynı makine</text>
</svg>
